<svg height="505pt" viewBox="0 -6 505.41542 505" width="505pt" xmlns="http://www.w3.org/2000/svg"><path d="m217.09375 35.207031c-30.652344.007813-55.496094 24.859375-55.488281 55.511719.007812 30.652344 24.859375 55.496094 55.511719 55.488281h.070312c30.648438-.019531 55.484375-24.882812 55.464844-55.53125-.019532-30.652343-24.882813-55.488281-55.535156-55.46875zm.066406 20c19.605469-.003906 35.503906 15.882813 35.511719 35.488281.003906 19.609376-15.886719 35.507813-35.492187 35.511719h-.0625c-19.605469-.007812-35.492188-15.90625-35.484376-35.511719.003907-19.605468 15.90625-35.496093 35.511719-35.488281zm0 0"/><path d="m345.699219.207031c-30.453125 0-55.21875 25.046875-55.199219 55.546875.007812 30.445313 24.78125 55.453125 55.226562 55.453125h.742188c14.589844-.03125 28.550781-5.949219 38.722656-16.414062 10.257813-10.351563 15.949219-24.375 15.808594-38.945313.019531-30.597656-24.679688-55.460937-55.273438-55.640625zm.066406 20c19.53125.195313 35.253906 16.09375 35.234375 35.621094v.113281c.0625 9.277344-3.554688 18.199219-10.050781 24.8125-6.460938 6.652344-15.328125 10.421875-24.597657 10.453125h-.625c-19.605468-.007812-35.496093-15.90625-35.488281-35.511719.007813-19.605468 15.90625-35.496093 35.511719-35.488281zm0 0"/><path d="m88.484375.207031c-30.652344.007813-55.496094 24.863281-55.488281 55.515625.007812 30.648438 24.859375 55.492188 55.511718 55.484375h.027344c30.402344 0 54.664063-24.230469 55.242188-55.109375 0-.0625 0-.1875 0-.253906.019531-30.589844-24.675782-55.453125-55.265625-55.636719zm.066406 20c19.484375.195313 35.1875 16.023438 35.226563 35.507813-.417969 19.832031-15.878906 35.492187-35.246094 35.492187h-.023438c-19.605468-.007812-35.492187-15.90625-35.488281-35.511719.007813-19.605468 15.90625-35.496093 35.511719-35.488281zm0 0"/><path d="m420.648438 301.207031h-15c-2.585938-.050781-5.078126.957031-6.902344 2.792969-1.820313 1.832031-2.8125 4.332031-2.746094 6.917969v20.289062h-59v-20.289062c.03125-2.605469-.996094-5.109375-2.847656-6.9375-1.851563-1.832031-4.367188-2.832031-6.972656-2.773438h-15c-12.292969-.042969-22.695313 9.074219-24.261719 21.269531-13.28125.246094-23.917969 11.085938-23.917969 24.371094v13.175782c-.007812 13.230468 10.507812 24.066406 23.734375 24.449218.382813 13.222656 11.21875 23.742188 24.449219 23.734375h15c2.617187.023438 5.136718-1.011719 6.984375-2.871093 1.847656-1.855469 2.867187-4.378907 2.832031-7v-21.128907h59v21.128907c-.074219 2.601562.910156 5.121093 2.730469 6.980468 1.820312 1.863282 4.316406 2.90625 6.917969 2.890625h15c13.246093.015625 24.109374-10.496093 24.535156-23.734375 13.238281-.378906 23.785156-11.203125 23.816406-24.449218v-13.171876c-.039062-13.300781-10.703125-24.132812-24-24.375-1.605469-12.207031-12.039062-21.320312-24.351562-21.269531zm-136.648438 58.816407v-13.175782c.15625-2.226562 1.804688-4.0625 4-4.453125v22.085938c-2.195312-.394531-3.84375-2.230469-4-4.457031zm33 28.183593h-4.816406c-1.152344.015625-2.257813-.453125-3.050782-1.289062-.792968-.832031-1.203124-1.960938-1.132812-3.109375v-58.359375c-.066406-1.136719.351562-2.242188 1.148438-3.050781.796874-.808594 1.898437-1.242188 3.035156-1.191407h4.816406zm20-31v-6h59v6zm88 26.601563c.035156 1.167968-.414062 2.300781-1.234375 3.128906-.824219.832031-1.949219 1.289062-3.117187 1.269531h-4.648438v-67h4.648438c1.152343-.058593 2.273437.367188 3.101562 1.171875.824219.804688 1.277344 1.917969 1.25 3.070313zm24-36.957032v13.175782c-.15625 2.226562-1.804688 4.0625-4 4.453125v-22.085938c2.195312.394531 3.84375 2.230469 4 4.457031zm0 0"/><path d="m434 233.199219v-38.222657c0-42.222656-33.886719-76.769531-76.125-76.769531h-23.085938c-29.855468.121094-57.007812 17.324219-69.867187 44.269531-11.085937-6.046874-23.503906-9.230468-36.132813-9.269531h-23.1875c-12.59375.03125-24.984374 3.179688-36.0625 9.171875-12.742187-26.902344-39.808593-44.082031-69.570312-44.171875h-22.980469c-42.164062 0-76.988281 34.335938-76.988281 76.464844v72.402344c.1875 5.625 4.785156 10.101562 10.414062 10.132812h118.585938v25.109375c.007812 2.640625 1.070312 5.171875 2.953125 7.027344 1.882813 1.859375 4.425781 2.890625 7.070313 2.863281h94.804687c-4.398437 13.691407-6.617187 27.988281-6.582031 42.367188 0 76.738281 62.429687 139.199219 139.167968 139.199219 76.738282 0 139-62.417969 139-139.15625.125-50.46875-27.242187-97.003907-71.414062-121.417969zm-99.210938-94.992188h23.070313c31.195313 0 56.140625 25.539063 56.140625 56.753907v29c-35.53125-13.0625-74.863281-11.011719-108.84375 5.683593-.097656-20.789062-8.664062-40.636719-23.722656-54.964843 8.710937-21.878907 29.808594-36.300782 53.355468-36.472657zm-314.789062 119v-62.453125c0-31.164062 25.835938-56.546875 57.007812-56.546875h22.941407c23.433593.128907 44.421875 14.523438 52.984375 36.339844-15.261719 14.402344-23.917969 34.453125-23.933594 55.441406v27.21875zm129 35v-62.199219c0-31.164062 25.441406-56.800781 56.613281-56.800781h23.160157c31.199218 0 56.226562 25.789063 56.226562 57v11.433594c-18.113281 13.238281-32.847656 30.5625-43 50.566406zm217.414062 181.589844c-65.816406 0-119.167968-53.355469-119.167968-119.171875s53.355468-119.167969 119.167968-119.167969c65.816407 0 119.171876 53.355469 119.171876 119.167969-.074219 65.789062-53.386719 119.097656-119.171876 119.171875zm0 0"/></svg>